<?xml version="1.0" encoding="utf-8" standalone="yes"?>
<!DOCTYPE svg PUBLIC "-//W3C//DTD SVG 1.1//EN" "http://www.w3.org/Graphics/SVG/1.1/DTD/svg11.dtd">
<svg width="792" height="648" viewBox="0 0 792 648" style="fill:none;stroke:none;fill-rule:evenodd;clip-rule:evenodd;stroke-linecap:round;stroke-linejoin:round;stroke-miterlimit:1.5;" version="1.1" xmlns="http://www.w3.org/2000/svg" xmlns:xlink="http://www.w3.org/1999/xlink"><style class="text-font-style fontImports" data-font-family="Roboto">@import url(https://fonts.googleapis.com/css2?family=Roboto:wght@400;700&amp;amp;display=block);</style><rect id="" x="0" y="0" width="792" height="648" style="fill: #2c2c2c;"></rect><g id="items" style="isolation: isolate"><g id="blend" style="mix-blend-mode: normal"><g id="g-root-tf_m8ma151ea3tok-fill" data-item-order="-769824"><g id="tf_m8ma151ea3tok-fill" stroke="none" fill="#2c2c2c"><g><path d="M 0 0L 792 0L 792 648L 0 648Z"></path></g></g></g><g id="g-root-sy_5_line_3d4qx1ejxr0i-fill" data-item-order="-160258" transform="translate(582.616455078125, 338)"></g><g id="g-root-sy_5_line_1_1q8u6h51ejxrm3-fill" data-item-order="-160254" transform="translate(589.9993286132812, 362)"></g><g id="g-root-sy_5_line_2_1lt0ocp1ejxsec-fill" data-item-order="-160250" transform="translate(582.6165161132812, 386)"></g><g id="g-root-sy_5_cu_1cxdo3t1ejxt71-fill" data-item-order="-160249" transform="translate(493.999755859375, 206)"><g id="sy_5_cu_1cxdo3t1ejxt71-fill" stroke="none" fill="#5c4938"><g><path d="M 57.965332 322L 45.965332 322L 10 205.113007L 21.965271 166L 10 126.886993L 45.965271 10L 57.965271 10L 105.965271 166L 57.965332 322Z"></path></g></g></g><g id="g-root-sy_4_line_zmjmtl1ejxrm6-fill" data-item-order="-160242" transform="translate(491.233154296875, 314)"></g><g id="g-root-sy_4_line_1_v6q4p51ejxsef-fill" data-item-order="-160238" transform="translate(498.615966796875, 338)"></g><g id="g-root-sy_4_line_2_v6q4p51ejxseg-fill" data-item-order="-160234" transform="translate(505.99932861328125, 362)"></g><g id="g-root-sy_4_line_3_qqwmkp1ejxt6p-fill" data-item-order="-160230" transform="translate(498.61944580078125, 386)"></g><g id="g-root-sy_4_line_4_hvw3ex1ejxqtm-fill" data-item-order="-160226" transform="translate(491.239013671875, 410)"></g><g id="g-root-sy_4_cu_dg2lah1ejxrlv-fill" data-item-order="-160225" transform="translate(409.999755859375, 206)"><g id="sy_4_cu_dg2lah1ejxrlv-fill" stroke="none" fill="#54502f"><g><path d="M 57.965302 322L 45.965302 322L 10 205.113007L 21.965302 166L 10 126.886993L 45.965302 10L 57.965302 10L 105.965302 166L 57.965302 322Z"></path></g></g></g><g id="g-root-sy_3_line_4m2x51ejxt6s-fill" data-item-order="-160218" transform="translate(399.8182373046875, 290)"></g><g id="g-root-sy_3_line_1_1qaplqh1ejxqml-fill" data-item-order="-160214" transform="translate(407.21173095703125, 314)"></g><g id="g-root-sy_3_line_2_1luw3m11ejxreu-fill" data-item-order="-160210" transform="translate(414.6053466796875, 338)"></g><g id="g-root-sy_3_line_3_1cz93d51ejxs7j-fill" data-item-order="-160206" transform="translate(421.9993896484375, 362)"></g><g id="g-root-sy_3_line_4_18jfl8p1ejxszs-fill" data-item-order="-160202" transform="translate(414.6092529296875, 386)"></g><g id="g-root-sy_3_line_5_18jfl8p1ejxszt-fill" data-item-order="-160198" transform="translate(407.2191162109375, 410)"></g><g id="g-root-sy_3_line_6_1448k7d1ejxqma-fill" data-item-order="-160194" transform="translate(399.8284912109375, 434)"></g><g id="g-root-sy_3_cu_v8ljyh1ejxrez-fill" data-item-order="-160193" transform="translate(325.9998779296875, 206)"><g id="sy_3_cu_v8ljyh1ejxrez-fill" stroke="none" fill="#4b533a"><g><path d="M 57.965301 322L 45.965301 322L 10 205.113007L 21.965301 166L 10 126.886993L 45.965301 10L 57.965301 10L 105.965301 166L 57.965301 322Z"></path></g></g></g><g id="g-root-sy_2_line_hx51l51ejxszw-fill" data-item-order="-160186" transform="translate(308.42901611328125, 266)"></g><g id="g-root-sy_2_line_1_dhy0jt1ejxqmd-fill" data-item-order="-160182" transform="translate(315.82159423828125, 290)"></g><g id="g-root-sy_2_line_2_4mb0ax1ejxrf2-fill" data-item-order="-160178" transform="translate(323.214111328125, 314)"></g><g id="g-root-sy_2_line_3_6hi6h1ejxs7b-fill" data-item-order="-160174" transform="translate(330.60675048828125, 338)"></g><g id="g-root-sy_2_line_4_6hi6h1ejxs7c-fill" data-item-order="-160170" transform="translate(337.99932861328125, 362)"></g><g id="g-root-sy_2_line_5_1urs2151ejxssh-fill" data-item-order="-160166" transform="translate(330.60919189453125, 386)"></g><g id="g-root-sy_2_line_6_1lw51s91ejxtl6-fill" data-item-order="-160162" transform="translate(323.218994140625, 410)"></g><g id="g-root-sy_2_line_7_1lw51s91ejxtl7-fill" data-item-order="-160158" transform="translate(315.828857421875, 434)"></g><g id="g-root-sy_2_line_8_1hgy0qx1ejxr7o-fill" data-item-order="-160154" transform="translate(308.43878173828125, 458)"></g><g id="g-root-sy_2_cu_18lb0i11ejxs0d-fill" data-item-order="-160153" transform="translate(241.99981689453125, 206)"><g id="sy_2_cu_18lb0i11ejxs0d-fill" stroke="none" fill="#3b5649"><g><path d="M 57.965301 322L 45.965301 322L 10 205.113007L 21.965301 166L 10 126.886993L 45.965301 10L 57.965301 10L 105.965301 166L 57.965301 322Z"></path></g></g></g><g id="g-root-sy_1_line_v9ui4p1ejxtla-fill" data-item-order="-160146" transform="translate(224.47830200195312, 266.0001220703125)"></g><g id="g-root-sy_1_line_1_qunh3d1ejxr7r-fill" data-item-order="-160142" transform="translate(217.09844970703125, 242.0001220703125)"></g><g id="g-root-sy_1_line_2_metyyx1ejxs00-fill" data-item-order="-160138" transform="translate(231.85818481445312, 290.0001220703125)"></g><g id="g-root-sy_1_line_3_dj6yq11ejxssp-fill" data-item-order="-160134" transform="translate(239.23806762695312, 314.0001220703125)"></g><g id="g-root-sy_1_line_4_dj6yq11ejxssq-fill" data-item-order="-160130" transform="translate(246.61795043945312, 338.0001220703125)"></g><g id="g-root-sy_1_line_5_93dgll1ejxtkz-fill" data-item-order="-160126" transform="translate(253.99783325195312, 362.0001220703125)"></g><g id="g-root-sy_1_line_6_8cxft1ejxr7w-fill" data-item-order="-160122" transform="translate(246.61209106445312, 386.0001220703125)"></g><g id="g-root-sy_1_line_7_1utnhah1ejxrt1-fill" data-item-order="-160118" transform="translate(239.22634887695312, 410.0001220703125)"></g><g id="g-root-sy_1_line_8_1ly0h1l1ejxslq-fill" data-item-order="-160114" transform="translate(231.84060668945312, 434.0001220703125)"></g><g id="g-root-sy_1_line_9_1hi6yx51ejxtdz-fill" data-item-order="-160110" transform="translate(224.45486450195312, 458.0001220703125)"></g><g id="g-root-sy_1_line_10_1hi6yx51ejxte0-fill" data-item-order="-160106" transform="translate(217.06915283203125, 482.0001220703125)"></g><g id="g-root-sy_1_cu_1d2zxvt1ejxr0h-fill" data-item-order="-160105" transform="translate(145.99981689453125, 206.0001220703125)"><g id="sy_1_cu_1d2zxvt1ejxr0h-fill" stroke="none" fill="#344e57"><g><path d="M 70 322L 58 322L 10 166L 57.999984 10L 69.999984 10L 117.999984 166L 70 322Z"></path></g></g></g><g id="g-root-sy_0_line_zrjfih1ejxsle-fill" data-item-order="-160098" transform="translate(122.000244140625, 266)"></g><g id="g-root-sy_0_line_1_qvwf9l1ejxte3-fill" data-item-order="-160094" transform="translate(133.99981689453125, 242)"></g><g id="g-root-sy_0_line_2_mgpe891ejxr0k-fill" data-item-order="-160090" transform="translate(122.00003051757812, 218)"></g><g id="g-root-sy_0_line_3_dl2dzd1ejxrt9-fill" data-item-order="-160086" transform="translate(134, 290)"></g><g id="g-root-sy_0_line_4_958vux1ejxsli-fill" data-item-order="-160082" transform="translate(122.00006103515625, 314)"></g><g id="g-root-sy_0_line_5_9lvm11ejxte7-fill" data-item-order="-160078" transform="translate(133.9998779296875, 338)"></g><g id="g-root-sy_0_line_6_1uljb611ejz5e0-fill" data-item-order="-160074" transform="translate(122, 362)"></g><g id="g-root-sy_0_line_7_1q5pt1l1ejz669-fill" data-item-order="-160070" transform="translate(133.9998779296875, 386)"></g><g id="g-root-sy_0_line_8_1q5pt1l1ejz66a-fill" data-item-order="-160066" transform="translate(122.00006103515625, 410)"></g><g id="g-root-sy_0_line_9_1ha2ssp1ejz6yz-fill" data-item-order="-160062" transform="translate(134, 434)"></g><g id="g-root-sy_0_line_10_1cu9ao91ejz7r8-fill" data-item-order="-160058" transform="translate(122.000244140625, 458)"></g><g id="g-root-sy_0_line_11_13z8rih1ejz5e5-fill" data-item-order="-160054" transform="translate(133.99981689453125, 482)"></g><g id="g-root-sy_0_line_12_zjf9e11ejz66e-fill" data-item-order="-160050" transform="translate(121.32421875, 506)"></g><g id="g-root-tx_stickerf_1q7l8ax1ejz56p-fill" data-item-order="0" transform="translate(326, 134)"><g id="tx_stickerf_1q7l8ax1ejz56p-fill" stroke="none" fill="#f4f4f4"><g><text style="font: 20px Roboto, sans-serif; white-space: pre;" font-size="20px" font-family="Roboto, sans-serif"><tspan x="21.46" y="34" dominant-baseline="ideographic">Sticker </tspan><tspan x="13.29" y="58" dominant-baseline="ideographic">Features</tspan></text></g></g></g><g id="g-root-tx_textenco_zlaond1ejz56r-fill" data-item-order="0" transform="translate(134, 158)"><g id="tx_textenco_zlaond1ejz56r-fill" stroke="none" fill="#f4f4f4"><g><text style="font: 20px Roboto, sans-serif; white-space: pre;" font-size="20px" font-family="Roboto, sans-serif"><tspan x="13.14" y="34" dominant-baseline="ideographic">Text Encoding</tspan></text></g></g></g><g id="g-root-tx_messagep_8z04zt1ejz56t-fill" data-item-order="0" transform="translate(650, 338)"><g id="tx_messagep_8z04zt1ejz56t-fill" stroke="none" fill="#f4f4f4"><g><text style="font: 20px Roboto, sans-serif; white-space: pre;" font-size="20px" font-family="Roboto, sans-serif"><tspan x="12" y="34" dominant-baseline="ideographic">Message </tspan><tspan x="12" y="58" dominant-baseline="ideographic">Politeness</tspan></text></g></g></g><g id="g-root-tx_featurec_8x4pqh1ejz66g-fill" data-item-order="0" transform="translate(380, 542)"><g id="tx_featurec_8x4pqh1ejz66g-fill" stroke="none" fill="#f4f4f4"><g><text style="font: 20px Roboto, sans-serif; white-space: pre;" font-size="20px" font-family="Roboto, sans-serif"><tspan x="48.45" y="34" dominant-baseline="ideographic">Feature </tspan><tspan x="17.13" y="58" dominant-baseline="ideographic">Concatenation</tspan></text></g></g></g><g id="g-root-tx_onlineme_m9u6a11ejz6ro-fill" data-item-order="0" transform="translate(14, 338)"><g id="tx_onlineme_m9u6a11ejz6ro-fill" stroke="none" fill="#f4f4f4"><g><text style="font: 20px Roboto, sans-serif; white-space: pre;" font-size="20px" font-family="Roboto, sans-serif"><tspan x="47.81" y="34" dominant-baseline="ideographic">Online </tspan><tspan x="22.56" y="58" dominant-baseline="ideographic">Message</tspan></text></g></g></g><g id="g-root-tx_emojifea_1cw4pxl1ejz6rm-fill" data-item-order="0" transform="translate(212, 542)"><g id="tx_emojifea_1cw4pxl1ejz6rm-fill" stroke="none" fill="#f4f4f4"><g><text style="font: 20px Roboto, sans-serif; white-space: pre;" font-size="20px" font-family="Roboto, sans-serif"><tspan x="15.82" y="34" dominant-baseline="ideographic">Emoji Features</tspan></text></g></g></g><g id="g-root-tx_messagep_1uonoll1ejz6km-fill" data-item-order="0" transform="translate(218, 38)"><g id="tx_messagep_1uonoll1ejz6km-fill" stroke="none" fill="#f4f4f4"><g><text style="font: bold 25px Roboto, sans-serif; white-space: pre;" font-weight="bold" font-size="25px" font-family="Roboto, sans-serif"><tspan x="13.81" y="42.6" dominant-baseline="ideographic">Message Processing Funnel</tspan></text></g></g></g><g id="g-root-tx_classifi_m7yr0p1ejz7rb-fill" data-item-order="0" transform="translate(470, 158)"><g id="tx_classifi_m7yr0p1ejz7rb-fill" stroke="none" fill="#f4f4f4"><g><text style="font: 20px Roboto, sans-serif; white-space: pre;" font-size="20px" font-family="Roboto, sans-serif"><tspan x="15.72" y="34" dominant-baseline="ideographic">Classification</tspan></text></g></g></g><g id="g-root-tf_m8ma151ea3tok-stroke" data-item-order="-769824"></g><g id="g-root-sy_5_line_3d4qx1ejxr0i-stroke" data-item-order="-160258" transform="translate(582.616455078125, 338)"><g id="sy_5_line_3d4qx1ejxr0i-stroke" fill="none" stroke-linecap="round" stroke-linejoin="round" stroke-miterlimit="4" stroke="#b7b7b7" stroke-width="2"><g><path d="M 10.00354 10L 53.00354 10"></path><path d="M 47.00354 16.5L 53.50354 10L 47.00354 3.5" stroke-dasharray="none"></path></g></g></g><g id="g-root-sy_5_line_1_1q8u6h51ejxrm3-stroke" data-item-order="-160254" transform="translate(589.9993286132812, 362)"><g id="sy_5_line_1_1q8u6h51ejxrm3-stroke" fill="none" stroke-linecap="round" stroke-linejoin="round" stroke-miterlimit="4" stroke="#b7b7b7" stroke-width="2"><g><path d="M 10.000671 10L 53.000671 10"></path><path d="M 47.000671 16.5L 53.500671 10L 47.000671 3.5" stroke-dasharray="none"></path></g></g></g><g id="g-root-sy_5_line_2_1lt0ocp1ejxsec-stroke" data-item-order="-160250" transform="translate(582.6165161132812, 386)"><g id="sy_5_line_2_1lt0ocp1ejxsec-stroke" fill="none" stroke-linecap="round" stroke-linejoin="round" stroke-miterlimit="4" stroke="#b7b7b7" stroke-width="2"><g><path d="M 10.003479 10L 53.003479 10"></path><path d="M 47.003479 16.5L 53.503479 10L 47.003479 3.5" stroke-dasharray="none"></path></g></g></g><g id="g-root-sy_5_cu_1cxdo3t1ejxt71-stroke" data-item-order="-160249" transform="translate(493.999755859375, 206)"><g id="sy_5_cu_1cxdo3t1ejxt71-stroke" fill="none" stroke-linecap="round" stroke-linejoin="round" stroke-miterlimit="4" stroke="#f79438" stroke-width="2"><g><path d="M 45.965332 322L 57.965332 322L 105.965271 166L 57.965271 10L 45.965271 10M 45.965332 322L 93.965271 166.028595L 45.965271 10M 45.965332 322L 10 205.112701L 21.965271 166L 10 126.887299L 45.965271 10"></path></g></g></g><g id="g-root-sy_4_line_zmjmtl1ejxrm6-stroke" data-item-order="-160242" transform="translate(491.233154296875, 314)"><g id="sy_4_line_zmjmtl1ejxrm6-stroke" fill="none" stroke-linecap="round" stroke-linejoin="round" stroke-miterlimit="4" stroke="#b7b7b7" stroke-width="2"><g><path d="M 9.996826 10L 52.996826 10"></path><path d="M 46.996826 16.5L 53.496826 10L 46.996826 3.5" stroke-dasharray="none"></path></g></g></g><g id="g-root-sy_4_line_1_v6q4p51ejxsef-stroke" data-item-order="-160238" transform="translate(498.615966796875, 338)"><g id="sy_4_line_1_v6q4p51ejxsef-stroke" fill="none" stroke-linecap="round" stroke-linejoin="round" stroke-miterlimit="4" stroke="#b7b7b7" stroke-width="2"><g><path d="M 10.004028 10L 53.004028 10"></path><path d="M 47.004028 16.5L 53.504028 10L 47.004028 3.5" stroke-dasharray="none"></path></g></g></g><g id="g-root-sy_4_line_2_v6q4p51ejxseg-stroke" data-item-order="-160234" transform="translate(505.99932861328125, 362)"><g id="sy_4_line_2_v6q4p51ejxseg-stroke" fill="none" stroke-linecap="round" stroke-linejoin="round" stroke-miterlimit="4" stroke="#b7b7b7" stroke-width="2"><g><path d="M 10.000671 10L 53.000671 10"></path><path d="M 47.000671 16.5L 53.500671 10L 47.000671 3.5" stroke-dasharray="none"></path></g></g></g><g id="g-root-sy_4_line_3_qqwmkp1ejxt6p-stroke" data-item-order="-160230" transform="translate(498.61944580078125, 386)"><g id="sy_4_line_3_qqwmkp1ejxt6p-stroke" fill="none" stroke-linecap="round" stroke-linejoin="round" stroke-miterlimit="4" stroke="#b7b7b7" stroke-width="2"><g><path d="M 10.000549 10L 53.000549 10"></path><path d="M 47.000549 16.5L 53.500549 10L 47.000549 3.5" stroke-dasharray="none"></path></g></g></g><g id="g-root-sy_4_line_4_hvw3ex1ejxqtm-stroke" data-item-order="-160226" transform="translate(491.239013671875, 410)"><g id="sy_4_line_4_hvw3ex1ejxqtm-stroke" fill="none" stroke-linecap="round" stroke-linejoin="round" stroke-miterlimit="4" stroke="#b7b7b7" stroke-width="2"><g><path d="M 10.000977 10L 53.000977 10"></path><path d="M 47.000977 16.5L 53.500977 10L 47.000977 3.5" stroke-dasharray="none"></path></g></g></g><g id="g-root-sy_4_cu_dg2lah1ejxrlv-stroke" data-item-order="-160225" transform="translate(409.999755859375, 206)"><g id="sy_4_cu_dg2lah1ejxrlv-stroke" fill="none" stroke-linecap="round" stroke-linejoin="round" stroke-miterlimit="4" stroke="#ffe711" stroke-width="2"><g><path d="M 45.965302 322L 57.965302 322L 105.965302 166L 57.965302 10L 45.965302 10M 45.965302 322L 93.965302 166.028595L 45.965302 10M 45.965302 322L 10 205.112701L 21.965302 166L 10 126.887299L 45.965302 10"></path></g></g></g><g id="g-root-sy_3_line_4m2x51ejxt6s-stroke" data-item-order="-160218" transform="translate(399.8182373046875, 290)"><g id="sy_3_line_4m2x51ejxt6s-stroke" fill="none" stroke-linecap="round" stroke-linejoin="round" stroke-miterlimit="4" stroke="#b7b7b7" stroke-width="2"><g><path d="M 10.00177 10L 53.00177 10"></path><path d="M 47.00177 16.5L 53.50177 10L 47.00177 3.5" stroke-dasharray="none"></path></g></g></g><g id="g-root-sy_3_line_1_1qaplqh1ejxqml-stroke" data-item-order="-160214" transform="translate(407.21173095703125, 314)"><g id="sy_3_line_1_1qaplqh1ejxqml-stroke" fill="none" stroke-linecap="round" stroke-linejoin="round" stroke-miterlimit="4" stroke="#b7b7b7" stroke-width="2"><g><path d="M 9.99823 10L 52.99823 10"></path><path d="M 46.99823 16.5L 53.49823 10L 46.99823 3.5" stroke-dasharray="none"></path></g></g></g><g id="g-root-sy_3_line_2_1luw3m11ejxreu-stroke" data-item-order="-160210" transform="translate(414.6053466796875, 338)"><g id="sy_3_line_2_1luw3m11ejxreu-stroke" fill="none" stroke-linecap="round" stroke-linejoin="round" stroke-miterlimit="4" stroke="#b7b7b7" stroke-width="2"><g><path d="M 10.004639 10L 53.004639 10"></path><path d="M 47.004639 16.5L 53.504639 10L 47.004639 3.5" stroke-dasharray="none"></path></g></g></g><g id="g-root-sy_3_line_3_1cz93d51ejxs7j-stroke" data-item-order="-160206" transform="translate(421.9993896484375, 362)"><g id="sy_3_line_3_1cz93d51ejxs7j-stroke" fill="none" stroke-linecap="round" stroke-linejoin="round" stroke-miterlimit="4" stroke="#b7b7b7" stroke-width="2"><g><path d="M 10.00061 10L 53.00061 10"></path><path d="M 47.00061 16.5L 53.50061 10L 47.00061 3.5" stroke-dasharray="none"></path></g></g></g><g id="g-root-sy_3_line_4_18jfl8p1ejxszs-stroke" data-item-order="-160202" transform="translate(414.6092529296875, 386)"><g id="sy_3_line_4_18jfl8p1ejxszs-stroke" fill="none" stroke-linecap="round" stroke-linejoin="round" stroke-miterlimit="4" stroke="#b7b7b7" stroke-width="2"><g><path d="M 10.000732 10L 53.000732 10"></path><path d="M 47.000732 16.5L 53.500732 10L 47.000732 3.5" stroke-dasharray="none"></path></g></g></g><g id="g-root-sy_3_line_5_18jfl8p1ejxszt-stroke" data-item-order="-160198" transform="translate(407.2191162109375, 410)"><g id="sy_3_line_5_18jfl8p1ejxszt-stroke" fill="none" stroke-linecap="round" stroke-linejoin="round" stroke-miterlimit="4" stroke="#b7b7b7" stroke-width="2"><g><path d="M 10.000854 10L 53.000854 10"></path><path d="M 47.000854 16.5L 53.500854 10L 47.000854 3.5" stroke-dasharray="none"></path></g></g></g><g id="g-root-sy_3_line_6_1448k7d1ejxqma-stroke" data-item-order="-160194" transform="translate(399.8284912109375, 434)"><g id="sy_3_line_6_1448k7d1ejxqma-stroke" fill="none" stroke-linecap="round" stroke-linejoin="round" stroke-miterlimit="4" stroke="#b7b7b7" stroke-width="2"><g><path d="M 10.001465 10L 53.001465 10"></path><path d="M 47.001465 16.5L 53.501465 10L 47.001465 3.5" stroke-dasharray="none"></path></g></g></g><g id="g-root-sy_3_cu_v8ljyh1ejxrez-stroke" data-item-order="-160193" transform="translate(325.9998779296875, 206)"><g id="sy_3_cu_v8ljyh1ejxrez-stroke" fill="none" stroke-linecap="round" stroke-linejoin="round" stroke-miterlimit="4" stroke="#a6da37" stroke-width="2"><g><path d="M 45.965301 322L 57.965301 322L 105.965301 166L 57.965301 10L 45.965301 10M 45.965301 322L 93.965301 166.028595L 45.965301 10M 45.965301 322L 10 205.112701L 21.965301 166L 10 126.887299L 45.965301 10"></path></g></g></g><g id="g-root-sy_2_line_hx51l51ejxszw-stroke" data-item-order="-160186" transform="translate(308.42901611328125, 266)"><g id="sy_2_line_hx51l51ejxszw-stroke" fill="none" stroke-linecap="round" stroke-linejoin="round" stroke-miterlimit="4" stroke="#b7b7b7" stroke-width="2"><g><path d="M 10.000977 10L 53.000977 10"></path><path d="M 47.000977 16.5L 53.500977 10L 47.000977 3.5" stroke-dasharray="none"></path></g></g></g><g id="g-root-sy_2_line_1_dhy0jt1ejxqmd-stroke" data-item-order="-160182" transform="translate(315.82159423828125, 290)"><g id="sy_2_line_1_dhy0jt1ejxqmd-stroke" fill="none" stroke-linecap="round" stroke-linejoin="round" stroke-miterlimit="4" stroke="#b7b7b7" stroke-width="2"><g><path d="M 9.998413 10L 52.998413 10"></path><path d="M 46.998413 16.5L 53.498413 10L 46.998413 3.5" stroke-dasharray="none"></path></g></g></g><g id="g-root-sy_2_line_2_4mb0ax1ejxrf2-stroke" data-item-order="-160178" transform="translate(323.214111328125, 314)"><g id="sy_2_line_2_4mb0ax1ejxrf2-stroke" fill="none" stroke-linecap="round" stroke-linejoin="round" stroke-miterlimit="4" stroke="#b7b7b7" stroke-width="2"><g><path d="M 9.99585 10L 52.99585 10"></path><path d="M 46.99585 16.5L 53.49585 10L 46.99585 3.5" stroke-dasharray="none"></path></g></g></g><g id="g-root-sy_2_line_3_6hi6h1ejxs7b-stroke" data-item-order="-160174" transform="translate(330.60675048828125, 338)"><g id="sy_2_line_3_6hi6h1ejxs7b-stroke" fill="none" stroke-linecap="round" stroke-linejoin="round" stroke-miterlimit="4" stroke="#b7b7b7" stroke-width="2"><g><path d="M 10.003235 10L 53.003235 10"></path><path d="M 47.003235 16.5L 53.503235 10L 47.003235 3.5" stroke-dasharray="none"></path></g></g></g><g id="g-root-sy_2_line_4_6hi6h1ejxs7c-stroke" data-item-order="-160170" transform="translate(337.99932861328125, 362)"><g id="sy_2_line_4_6hi6h1ejxs7c-stroke" fill="none" stroke-linecap="round" stroke-linejoin="round" stroke-miterlimit="4" stroke="#b7b7b7" stroke-width="2"><g><path d="M 10.000671 10L 53.000671 10"></path><path d="M 47.000671 16.5L 53.500671 10L 47.000671 3.5" stroke-dasharray="none"></path></g></g></g><g id="g-root-sy_2_line_5_1urs2151ejxssh-stroke" data-item-order="-160166" transform="translate(330.60919189453125, 386)"><g id="sy_2_line_5_1urs2151ejxssh-stroke" fill="none" stroke-linecap="round" stroke-linejoin="round" stroke-miterlimit="4" stroke="#b7b7b7" stroke-width="2"><g><path d="M 10.000793 10L 53.000793 10"></path><path d="M 47.000793 16.5L 53.500793 10L 47.000793 3.5" stroke-dasharray="none"></path></g></g></g><g id="g-root-sy_2_line_6_1lw51s91ejxtl6-stroke" data-item-order="-160162" transform="translate(323.218994140625, 410)"><g id="sy_2_line_6_1lw51s91ejxtl6-stroke" fill="none" stroke-linecap="round" stroke-linejoin="round" stroke-miterlimit="4" stroke="#b7b7b7" stroke-width="2"><g><path d="M 10.000977 10L 53.000977 10"></path><path d="M 47.000977 16.5L 53.500977 10L 47.000977 3.5" stroke-dasharray="none"></path></g></g></g><g id="g-root-sy_2_line_7_1lw51s91ejxtl7-stroke" data-item-order="-160158" transform="translate(315.828857421875, 434)"><g id="sy_2_line_7_1lw51s91ejxtl7-stroke" fill="none" stroke-linecap="round" stroke-linejoin="round" stroke-miterlimit="4" stroke="#b7b7b7" stroke-width="2"><g><path d="M 10.001099 10L 53.001099 10"></path><path d="M 47.001099 16.5L 53.501099 10L 47.001099 3.5" stroke-dasharray="none"></path></g></g></g><g id="g-root-sy_2_line_8_1hgy0qx1ejxr7o-stroke" data-item-order="-160154" transform="translate(308.43878173828125, 458)"><g id="sy_2_line_8_1hgy0qx1ejxr7o-stroke" fill="none" stroke-linecap="round" stroke-linejoin="round" stroke-miterlimit="4" stroke="#b7b7b7" stroke-width="2"><g><path d="M 10.001221 10L 53.001221 10"></path><path d="M 47.001221 16.5L 53.501221 10L 47.001221 3.5" stroke-dasharray="none"></path></g></g></g><g id="g-root-sy_2_cu_18lb0i11ejxs0d-stroke" data-item-order="-160153" transform="translate(241.99981689453125, 206)"><g id="sy_2_cu_18lb0i11ejxs0d-stroke" fill="none" stroke-linecap="round" stroke-linejoin="round" stroke-miterlimit="4" stroke="#43dd93" stroke-width="2"><g><path d="M 45.965301 322L 57.965301 322L 105.965301 166L 57.965301 10L 45.965301 10M 45.965301 322L 93.965301 166.028595L 45.965301 10M 45.965301 322L 10 205.112701L 21.965301 166L 10 126.887299L 45.965301 10"></path></g></g></g><g id="g-root-sy_1_line_v9ui4p1ejxtla-stroke" data-item-order="-160146" transform="translate(224.47830200195312, 266.0001220703125)"><g id="sy_1_line_v9ui4p1ejxtla-stroke" fill="none" stroke-linecap="round" stroke-linejoin="round" stroke-miterlimit="4" stroke="#b7b7b7" stroke-width="2"><g><path d="M 10.001709 9.999878L 53.001709 9.999878"></path><path d="M 47.001709 16.499878L 53.501709 9.999878L 47.001709 3.499878" stroke-dasharray="none"></path></g></g></g><g id="g-root-sy_1_line_1_qunh3d1ejxr7r-stroke" data-item-order="-160142" transform="translate(217.09844970703125, 242.0001220703125)"><g id="sy_1_line_1_qunh3d1ejxr7r-stroke" fill="none" stroke-linecap="round" stroke-linejoin="round" stroke-miterlimit="4" stroke="#b7b7b7" stroke-width="2"><g><path d="M 10.001556 9.999878L 53.001556 9.999878"></path><path d="M 47.001556 16.499878L 53.501556 9.999878L 47.001556 3.499878" stroke-dasharray="none"></path></g></g></g><g id="g-root-sy_1_line_2_metyyx1ejxs00-stroke" data-item-order="-160138" transform="translate(231.85818481445312, 290.0001220703125)"><g id="sy_1_line_2_metyyx1ejxs00-stroke" fill="none" stroke-linecap="round" stroke-linejoin="round" stroke-miterlimit="4" stroke="#b7b7b7" stroke-width="2"><g><path d="M 10.001801 9.999878L 53.001801 9.999878"></path><path d="M 47.001801 16.499878L 53.501801 9.999878L 47.001801 3.499878" stroke-dasharray="none"></path></g></g></g><g id="g-root-sy_1_line_3_dj6yq11ejxssp-stroke" data-item-order="-160134" transform="translate(239.23806762695312, 314.0001220703125)"><g id="sy_1_line_3_dj6yq11ejxssp-stroke" fill="none" stroke-linecap="round" stroke-linejoin="round" stroke-miterlimit="4" stroke="#b7b7b7" stroke-width="2"><g><path d="M 10.001923 9.999878L 53.001923 9.999878"></path><path d="M 47.001923 16.499878L 53.501923 9.999878L 47.001923 3.499878" stroke-dasharray="none"></path></g></g></g><g id="g-root-sy_1_line_4_dj6yq11ejxssq-stroke" data-item-order="-160130" transform="translate(246.61795043945312, 338.0001220703125)"><g id="sy_1_line_4_dj6yq11ejxssq-stroke" fill="none" stroke-linecap="round" stroke-linejoin="round" stroke-miterlimit="4" stroke="#b7b7b7" stroke-width="2"><g><path d="M 10.002045 9.999878L 53.002045 9.999878"></path><path d="M 47.002045 16.499878L 53.502045 9.999878L 47.002045 3.499878" stroke-dasharray="none"></path></g></g></g><g id="g-root-sy_1_line_5_93dgll1ejxtkz-stroke" data-item-order="-160126" transform="translate(253.99783325195312, 362.0001220703125)"><g id="sy_1_line_5_93dgll1ejxtkz-stroke" fill="none" stroke-linecap="round" stroke-linejoin="round" stroke-miterlimit="4" stroke="#b7b7b7" stroke-width="2"><g><path d="M 10.002167 9.999878L 53.002167 9.999878"></path><path d="M 47.002167 16.499878L 53.502167 9.999878L 47.002167 3.499878" stroke-dasharray="none"></path></g></g></g><g id="g-root-sy_1_line_6_8cxft1ejxr7w-stroke" data-item-order="-160122" transform="translate(246.61209106445312, 386.0001220703125)"><g id="sy_1_line_6_8cxft1ejxr7w-stroke" fill="none" stroke-linecap="round" stroke-linejoin="round" stroke-miterlimit="4" stroke="#b7b7b7" stroke-width="2"><g><path d="M 9.997894 9.999878L 52.997894 9.999878"></path><path d="M 46.997894 16.499878L 53.497894 9.999878L 46.997894 3.499878" stroke-dasharray="none"></path></g></g></g><g id="g-root-sy_1_line_7_1utnhah1ejxrt1-stroke" data-item-order="-160118" transform="translate(239.22634887695312, 410.0001220703125)"><g id="sy_1_line_7_1utnhah1ejxrt1-stroke" fill="none" stroke-linecap="round" stroke-linejoin="round" stroke-miterlimit="4" stroke="#b7b7b7" stroke-width="2"><g><path d="M 10.003662 9.999878L 53.003662 9.999878"></path><path d="M 47.003662 16.499878L 53.503662 9.999878L 47.003662 3.499878" stroke-dasharray="none"></path></g></g></g><g id="g-root-sy_1_line_8_1ly0h1l1ejxslq-stroke" data-item-order="-160114" transform="translate(231.84060668945312, 434.0001220703125)"><g id="sy_1_line_8_1ly0h1l1ejxslq-stroke" fill="none" stroke-linecap="round" stroke-linejoin="round" stroke-miterlimit="4" stroke="#b7b7b7" stroke-width="2"><g><path d="M 9.99939 9.999878L 52.99939 9.999878"></path><path d="M 46.99939 16.499878L 53.49939 9.999878L 46.99939 3.499878" stroke-dasharray="none"></path></g></g></g><g id="g-root-sy_1_line_9_1hi6yx51ejxtdz-stroke" data-item-order="-160110" transform="translate(224.45486450195312, 458.0001220703125)"><g id="sy_1_line_9_1hi6yx51ejxtdz-stroke" fill="none" stroke-linecap="round" stroke-linejoin="round" stroke-miterlimit="4" stroke="#b7b7b7" stroke-width="2"><g><path d="M 9.995148 9.999878L 52.995148 9.999878"></path><path d="M 46.995148 16.499878L 53.495148 9.999878L 46.995148 3.499878" stroke-dasharray="none"></path></g></g></g><g id="g-root-sy_1_line_10_1hi6yx51ejxte0-stroke" data-item-order="-160106" transform="translate(217.06915283203125, 482.0001220703125)"><g id="sy_1_line_10_1hi6yx51ejxte0-stroke" fill="none" stroke-linecap="round" stroke-linejoin="round" stroke-miterlimit="4" stroke="#b7b7b7" stroke-width="2"><g><path d="M 10.000854 9.999878L 53.000854 9.999878"></path><path d="M 47.000854 16.499878L 53.500854 9.999878L 47.000854 3.499878" stroke-dasharray="none"></path></g></g></g><g id="g-root-sy_1_cu_1d2zxvt1ejxr0h-stroke" data-item-order="-160105" transform="translate(145.99981689453125, 206.0001220703125)"><g id="sy_1_cu_1d2zxvt1ejxr0h-stroke" fill="none" stroke-linecap="round" stroke-linejoin="round" stroke-miterlimit="4" stroke="#1ac3fb" stroke-width="2"><g><path d="M 58 322L 70 322L 117.999984 166L 69.999984 10L 57.999984 10M 58 322L 10 166L 57.999984 10M 58 322L 105.999984 166L 57.999984 10"></path></g></g></g><g id="g-root-sy_0_line_zrjfih1ejxsle-stroke" data-item-order="-160098" transform="translate(122.000244140625, 266)"><g id="sy_0_line_zrjfih1ejxsle-stroke" fill="none" stroke-linecap="round" stroke-linejoin="round" stroke-miterlimit="4" stroke="#ababab" stroke-width="2"><g><path d="M 9.999756 10L 71.399756 10"></path><path d="M 65.399756 16.5L 71.899756 10L 65.399756 3.5" stroke-dasharray="none"></path></g></g></g><g id="g-root-sy_0_line_1_qvwf9l1ejxte3-stroke" data-item-order="-160094" transform="translate(133.99981689453125, 242)"><g id="sy_0_line_1_qvwf9l1ejxte3-stroke" fill="none" stroke-linecap="round" stroke-linejoin="round" stroke-miterlimit="4" stroke="#ababab" stroke-width="2"><g><path d="M 10.000183 10L 52.110183 10"></path><path d="M 46.100183 16.5L 52.600183 10L 46.100183 3.5" stroke-dasharray="none"></path></g></g></g><g id="g-root-sy_0_line_2_mgpe891ejxr0k-stroke" data-item-order="-160090" transform="translate(122.00003051757812, 218)"><g id="sy_0_line_2_mgpe891ejxr0k-stroke" fill="none" stroke-linecap="round" stroke-linejoin="round" stroke-miterlimit="4" stroke="#ababab" stroke-width="2"><g><path d="M 9.999969 10L 56.699969 10"></path><path d="M 50.699969 16.5L 57.199969 10L 50.699969 3.5" stroke-dasharray="none"></path></g></g></g><g id="g-root-sy_0_line_3_dl2dzd1ejxrt9-stroke" data-item-order="-160086" transform="translate(134, 290)"><g id="sy_0_line_3_dl2dzd1ejxrt9-stroke" fill="none" stroke-linecap="round" stroke-linejoin="round" stroke-miterlimit="4" stroke="#ababab" stroke-width="2"><g><path d="M 10 10L 66.79 10"></path><path d="M 60.8 16.5L 67.3 10L 60.8 3.5" stroke-dasharray="none"></path></g></g></g><g id="g-root-sy_0_line_4_958vux1ejxsli-stroke" data-item-order="-160082" transform="translate(122.00006103515625, 314)"><g id="sy_0_line_4_958vux1ejxsli-stroke" fill="none" stroke-linecap="round" stroke-linejoin="round" stroke-miterlimit="4" stroke="#ababab" stroke-width="2"><g><path d="M 9.999939 10L 86.209939 10"></path><path d="M 80.199939 16.5L 86.699939 10L 80.199939 3.5" stroke-dasharray="none"></path></g></g></g><g id="g-root-sy_0_line_5_9lvm11ejxte7-stroke" data-item-order="-160078" transform="translate(133.9998779296875, 338)"><g id="sy_0_line_5_9lvm11ejxte7-stroke" fill="none" stroke-linecap="round" stroke-linejoin="round" stroke-miterlimit="4" stroke="#ababab" stroke-width="2"><g><path d="M 10.000122 10L 81.610122 10"></path><path d="M 75.600122 16.5L 82.100122 10L 75.600122 3.5" stroke-dasharray="none"></path></g></g></g><g id="g-root-sy_0_line_6_1uljb611ejz5e0-stroke" data-item-order="-160074" transform="translate(122, 362)"><g id="sy_0_line_6_1uljb611ejz5e0-stroke" fill="none" stroke-linecap="round" stroke-linejoin="round" stroke-miterlimit="4" stroke="#ababab" stroke-width="2"><g><path d="M 10 10L 101 10"></path><path d="M 95 16.5L 101.5 10L 95 3.5" stroke-dasharray="none"></path></g></g></g><g id="g-root-sy_0_line_7_1q5pt1l1ejz669-stroke" data-item-order="-160070" transform="translate(133.9998779296875, 386)"><g id="sy_0_line_7_1q5pt1l1ejz669-stroke" fill="none" stroke-linecap="round" stroke-linejoin="round" stroke-miterlimit="4" stroke="#ababab" stroke-width="2"><g><path d="M 10.000122 10L 81.610122 10"></path><path d="M 75.600122 16.5L 82.100122 10L 75.600122 3.5" stroke-dasharray="none"></path></g></g></g><g id="g-root-sy_0_line_8_1q5pt1l1ejz66a-stroke" data-item-order="-160066" transform="translate(122.00006103515625, 410)"><g id="sy_0_line_8_1q5pt1l1ejz66a-stroke" fill="none" stroke-linecap="round" stroke-linejoin="round" stroke-miterlimit="4" stroke="#ababab" stroke-width="2"><g><path d="M 9.999939 10L 86.209939 10"></path><path d="M 80.199939 16.5L 86.699939 10L 80.199939 3.5" stroke-dasharray="none"></path></g></g></g><g id="g-root-sy_0_line_9_1ha2ssp1ejz6yz-stroke" data-item-order="-160062" transform="translate(134, 434)"><g id="sy_0_line_9_1ha2ssp1ejz6yz-stroke" fill="none" stroke-linecap="round" stroke-linejoin="round" stroke-miterlimit="4" stroke="#ababab" stroke-width="2"><g><path d="M 10 10L 66.79 10"></path><path d="M 60.8 16.5L 67.3 10L 60.8 3.5" stroke-dasharray="none"></path></g></g></g><g id="g-root-sy_0_line_10_1cu9ao91ejz7r8-stroke" data-item-order="-160058" transform="translate(122.000244140625, 458)"><g id="sy_0_line_10_1cu9ao91ejz7r8-stroke" fill="none" stroke-linecap="round" stroke-linejoin="round" stroke-miterlimit="4" stroke="#ababab" stroke-width="2"><g><path d="M 9.999756 10L 71.399756 10"></path><path d="M 65.399756 16.5L 71.899756 10L 65.399756 3.5" stroke-dasharray="none"></path></g></g></g><g id="g-root-sy_0_line_11_13z8rih1ejz5e5-stroke" data-item-order="-160054" transform="translate(133.99981689453125, 482)"><g id="sy_0_line_11_13z8rih1ejz5e5-stroke" fill="none" stroke-linecap="round" stroke-linejoin="round" stroke-miterlimit="4" stroke="#ababab" stroke-width="2"><g><path d="M 10.000183 10L 52.110183 10"></path><path d="M 46.100183 16.5L 52.600183 10L 46.100183 3.5" stroke-dasharray="none"></path></g></g></g><g id="g-root-sy_0_line_12_zjf9e11ejz66e-stroke" data-item-order="-160050" transform="translate(121.32421875, 506)"><g id="sy_0_line_12_zjf9e11ejz66e-stroke" fill="none" stroke-linecap="round" stroke-linejoin="round" stroke-miterlimit="4" stroke="#ababab" stroke-width="2"><g><path d="M 9.995789 10L 57.345789 10"></path><path d="M 51.295789 16.5L 57.795789 10L 51.295789 3.5" stroke-dasharray="none"></path></g></g></g><g id="g-root-tx_stickerf_1q7l8ax1ejz56p-stroke" data-item-order="0" transform="translate(326, 134)"></g><g id="g-root-tx_textenco_zlaond1ejz56r-stroke" data-item-order="0" transform="translate(134, 158)"></g><g id="g-root-tx_messagep_8z04zt1ejz56t-stroke" data-item-order="0" transform="translate(650, 338)"></g><g id="g-root-tx_featurec_8x4pqh1ejz66g-stroke" data-item-order="0" transform="translate(380, 542)"></g><g id="g-root-tx_onlineme_m9u6a11ejz6ro-stroke" data-item-order="0" transform="translate(14, 338)"></g><g id="g-root-tx_emojifea_1cw4pxl1ejz6rm-stroke" data-item-order="0" transform="translate(212, 542)"></g><g id="g-root-tx_messagep_1uonoll1ejz6km-stroke" data-item-order="0" transform="translate(218, 38)"></g><g id="g-root-tx_classifi_m7yr0p1ejz7rb-stroke" data-item-order="0" transform="translate(470, 158)"></g></g></g><path id="w18lyd6x1f46rk8" d="M65.283 12.757a.35.35 0 0 0 .584.157l5.203-5.141-6.183 3.523.396 1.461zm-2.216-11.7a.35.35 0 0 0-.522.305v3.111l3.276-1.868-2.754-1.548zm3.728 2.105l-4.25 2.421v2.445l6.391-3.644-2.141-1.222zm4.708 3.303a.35.35 0 0 0 0-.609l-1.592-.9-7.365 4.199v1.782a.35.35 0 0 0 .523.305l8.435-4.777z M44.542 2.513c0-.433.355-.783.792-.783s.792.35.792.783-.355.783-.792.783-.792-.35-.792-.783zm59.171 0c0-.433.355-.783.792-.783s.792.35.792.783-.355.783-.792.783-.792-.35-.792-.783zm-85.951 7.636h-1.27v-.487c-.276.201-.864.609-1.881.609-1.202 0-2.274-.794-2.137-2.078.118-1.106 1.153-1.584 1.848-1.727l2.17-.345c0-.539-.29-.956-1.064-1.006s-1.21.305-1.571 1.017l-1.124-.605c1.218-2.631 5.029-1.764 5.029.414v4.207zm-1.27-2.86c.006.396-.062 1.112-.819 1.59-.587.37-1.841.299-1.903-.395-.049-.555.461-.791.906-.898l1.816-.297zm72.662 2.86h-1.27v-.487c-.276.201-.864.609-1.881.609-1.202 0-2.274-.794-2.137-2.078.118-1.106 1.153-1.584 1.848-1.727l2.17-.345c0-.539-.29-.956-1.064-1.006s-1.21.305-1.571 1.017l-1.124-.605c1.218-2.631 5.029-1.764 5.029.414v4.207zm-1.27-2.86c.006.396-.062 1.112-.82 1.59-.587.37-1.841.299-1.903-.395-.049-.555.461-.791.906-.898l1.816-.297zM99.096 10.149H97.85v-8.45h1.246v4.895l2.68-2.559h1.738l-2.633 2.535 2.715 3.578h-1.556l-2.077-2.707-.867.844v1.863zm6.053-6.114h-1.255v6.113h1.255V4.035zm-59.2 0h-1.255v6.113h1.255V4.035zm5.584 6.113V1.697h1.255v2.695c.361-.346 1-.485 1.47-.485 1.452 0 2.477 1.082 2.457 2.448v3.792h-1.27v-3.68c0-.408-.214-1.339-1.315-1.339-.968 0-1.342.756-1.342 1.339v3.681h-1.255zm-4.76-4.894V4.039h.621a.45.45 0 0 0 .45-.45v-.855h1.251v1.305h1.309v1.215h-1.309v3.109c0 .293.105.664.648.664.365 0 .531-.035.736-.07v1.137s-.361.113-.857.113c-1.398 0-1.777-1.051-1.777-1.788V5.254h-1.071zM36.528 4.039h-1.394l2.191 6.106h1.125l1.234-3.918 1.238 3.918h1.129l2.188-6.106h-1.383l-1.359 3.93-1.256-3.93h-1.124l-1.242 3.957-1.348-3.957zM26.212 7.141c-.02 1.566 1.187 3.129 3.223 3.129 1.566 0 2.383-.918 2.734-1.719L31.172 8c-.315.399-.801 1.094-1.738 1.094-1.145 0-1.825-.781-1.891-1.52h4.625c.074-.284.148-.995-.03-1.559-.336-1.064-1.221-2.102-2.839-2.102s-3.088 1.152-3.088 3.227zm1.363-.75h3.348c-.055-.43-.566-1.301-1.623-1.301a1.79 1.79 0 0 0-1.725 1.301zm-8.758.75c.038 1.758 1.277 3.133 3.145 3.133 1.074 0 1.723-.477 1.961-.672v.547h1.242V1.703h-1.258v2.888c-.414-.36-1.062-.68-1.93-.68-1.91 0-3.198 1.473-3.16 3.23zm1.309-.08c0 1.119.723 1.978 1.836 1.978a1.88 1.88 0 0 0 1.94-1.904c0-1.371-1.011-1.99-1.972-1.99s-1.805.798-1.805 1.916zm76.683-.028C96.771 5.275 95.532 3.9 93.664 3.9c-1.074 0-1.723.477-1.961.672v-.547h-1.242v8.22h1.258V9.583c.414.36 1.063.68 1.93.68 1.91 0 3.198-1.473 3.16-3.23zm-1.309.08c0-1.119-.723-1.978-1.836-1.978a1.88 1.88 0 0 0-1.94 1.904c0 1.371 1.011 1.99 1.972 1.99S95.5 8.231 95.5 7.113zM106.441 10.173V4.036h1.254v.382c.361-.346 1-.485 1.47-.485 1.452 0 2.477 1.082 2.457 2.448v3.792h-1.27V6.492c0-.408-.214-1.339-1.315-1.339-.969 0-1.342.756-1.342 1.339v3.681h-1.254zm-30.383-.021V1.824h1.084l4.215 5.777V1.824h1.32v8.328h-1.094l-4.207-5.796v5.796h-1.319zM5.24 10.149H4V2.377h1.014l2.664 3.597 2.654-3.592h1.03v7.766h-1.256V4.762L7.678 8.068 5.24 4.742v5.407z" transform="translate(656, 614)" fill="#acacac88" stroke="none"></path></svg>